<?xml version="1.0" encoding="UTF-8"?>
<svg width="445px" height="406px" viewBox="0 0 445 406" version="1.1" xmlns="http://www.w3.org/2000/svg" xmlns:xlink="http://www.w3.org/1999/xlink">
    <!-- Generator: Sketch 52.4 (67378) - http://www.bohemiancoding.com/sketch -->
    <title>hb-logo</title>
    <desc>Created with Sketch, fixed, inexpertly, by hand.</desc>
    <g id="Page-1" stroke="none" stroke-width="1" fill="none" fill-rule="nonzero">
        <path d="M376.8,370.117528 C377.7,369.217528 378,363.317528 378,349.617528 C378,330.417528 378,330.317528 380.3,329.917528 C404.1,325.417528 411.5,321.917528 424.6,308.917528 C432.2,301.417528 434.5,298.317528 437.8,291.317528 C443.1,280.417528 445,272.217528 445,260.217528 C445,234.117528 431.1,211.017528 408,198.917528 C401,195.217528 388.5,191.317528 383.5,191.317528 C381.9,191.317528 380,190.917528 379.4,190.517528 C378.6,190.117528 378.1,185.217528 377.9,177.317528 C377.5,166.117528 377.2,164.217528 374.7,159.117528 C371.5,152.617528 366.2,147.517528 359.1,143.917528 C353.1,140.817528 351,138.017528 351,133.217528 C351,131.117528 350.2,128.517528 349.1,127.217528 L347.2,124.817528 L247.3,124.517528 C177.4,124.317528 146.7,124.617528 144.9,125.417528 C141.8,126.617528 140,130.117528 140,134.717528 C140,138.517528 137.7,141.017528 131.1,144.317528 C124.8,147.417528 117.7,155.017528 115.4,160.817528 C113.6,165.617528 113.5,170.017528 113.2,267.217528 C113,342.217528 113.3,368.917528 114.1,369.917528 C115.7,371.817528 374.9,372.017528 376.8,370.117528 Z" id="cup" transform="translate(279.070000, 247.951998) scale(1, -1) translate(-279.070000, -247.951998) " fill="#00000F" fill-rule="evenodd"></path>
        <path d="M239.3,106.476111 C255.5,95.3761115 261,79.3761115 253.9,64.3761115 C251.4,58.9761115 248.3,55.3761115 235.6,42.8761115 C222.2,29.6761115 220.1,27.1761115 218.2,22.0761115 C215.5,14.8761115 215.5,12.4761115 218.1,6.27611147 C219.3,3.57611147 220,1.07611147 219.7,0.676111467 C218.8,-0.123888533 209.8,4.57611147 203.8,8.97611147 C195.2,15.2761115 190.2,24.8761115 191.4,32.6761115 C192.7,41.3761115 196.5,47.1761115 208.4,58.7761115 C221.2,71.2761115 226.6,78.9761115 230,89.3761115 C231.8,94.8761115 232.2,97.8761115 231.7,102.876111 C231.3,108.876111 231.4,109.376111 233.2,109.376111 C234.3,109.376111 237,108.076111 239.3,106.476111 Z" id="steamy-large" fill="#00000F" fill-rule="nonzero" transform="translate(224.083940, 54.981290) scale(1, -1) translate(-224.083940, -54.981290) "></path>
        <path d="M285.4,103.498804 C288.5,100.998804 292,94.598804 292,91.398804 C292,90.098804 291.1,87.298804 290.1,85.098804 C288.4,81.298804 286.7,79.598804 277,71.698804 C271.8,67.498804 268.6,60.798804 269.5,55.998804 C270,53.098804 269.8,52.598804 268.3,52.598804 C263.7,52.598804 259,59.098804 259,65.598804 C259,70.398804 261.4,75.098804 267.6,82.398804 C273.5,89.298804 279,99.398804 279,103.398804 C279,106.298804 281.8,106.298804 285.4,103.498804 Z" id="steamy-small" fill="#00000F" fill-rule="nonzero" transform="translate(275.500000, 79.092636) scale(1, -1) translate(-275.500000, -79.092636) "></path>
        <path d="M117.1,404.482283 C118,403.382283 118.4,399.582283 118.4,392.482283 C118.4,379.182283 118.2,378.982283 106.4,378.582283 C98,378.382283 86.8,376.182283 82.7,373.882283 C79,371.982283 72.8,365.682283 71,362.082283 C66.7,353.682283 66,346.682283 66,313.282283 C66,277.782283 65.2,267.282283 61.9,258.582283 C58.8,250.182283 50.8,242.282283 42,238.982283 C38.4,237.582283 35.5,235.882283 35.5,235.182283 C35.5,234.382283 37.3,233.282283 39.5,232.582283 C52.4,228.782283 59.5,221.082283 63.7,206.382283 C65,201.582283 65.4,192.782283 66,157.082283 C66.5,129.382283 67.1,111.982283 67.9,109.282283 C72.3,92.6822825 82.7,86.1822825 107.5,84.2822825 C115.7,83.6822825 116.5,83.3822825 117.7,81.0822825 C119.3,77.8822825 119.3,63.2822825 117.7,60.0822825 C116.9,58.5822825 115.2,57.3822825 113,56.8822825 C107.9,55.8822825 82.7,58.5822825 74.5,61.0822825 C56.7,66.5822825 44.8,77.6822825 39,94.2822825 C35,105.682283 34,118.182283 34,157.382283 C34,196.182283 33.3,200.682283 26.2,208.282283 C22.6,212.182283 20.5,213.382283 15.1,214.982283 C11.5,216.082283 7.2,217.082283 5.5,217.282283 C0.7,217.782283 2.70339306e-14,220.582283 0.4,236.782283 C0.6,245.582283 1.2,251.582283 1.9,252.482283 C2.5,253.182283 5.8,254.182283 9.3,254.482283 C21.3,255.882283 27.7,260.682283 31.3,270.782283 C33.1,276.082283 33.4,280.082283 34.1,316.582283 C34.8,353.182283 35,357.182283 37,364.082283 C39.7,373.582283 43.2,380.082283 49.3,386.782283 C57.2,395.382283 69.3,401.682283 82.5,403.982283 C92.4,405.782283 93.1,405.782283 104.6,405.982283 C113.7,406.082283 116,405.782283 117.1,404.482283 Z" id="curly" fill="#FC6A21" fill-rule="nonzero" transform="translate(59.602186, 231.334375) scale(1, -1) translate(-59.602186, -231.334375) "></path>
        <path d="M155,314.9032 C148.7,309.6032 149,312.9032 149,241.5032 C149,177.7032 149,176.3032 151.1,172.4032 C154.8,165.0032 164.4,162.9032 170.2,168.2032 C175.1,172.6032 175,171.2032 175,241.0032 C175,300.3032 174.8,307.0032 173.3,310.2032 C169.9,317.4032 160.8,319.8032 155,314.9032 Z" id="gleam" fill="#FFFFFF" fill-rule="nonzero" transform="translate(161.998943, 241.362660) scale(1, -1) translate(-161.998943, -241.362660) "></path>
        <path d="M378,233.7 L378.1,198.8 L381.8,199.2 C387.1,199.9 395.1,203.8 399.9,208.1 C402.1,210.2 405.4,214.8 407.2,218.4 C410.1,224.3 410.5,226 410.5,233.6 C410.5,241.2 410.2,242.8 407.2,248.8 C402.3,258.8 392.6,266.2 381.7,268 L378,268.7 L378,233.7 Z" id="handle" fill="#FFFFFF" fill-rule="nonzero" transform="translate(394.250000, 233.750000) scale(1, -1) translate(-394.250000, -233.750000) "></path>
    </g>
</svg>