<?xml version="1.0" standalone="no"?>
<!DOCTYPE svg PUBLIC "-//W3C//DTD SVG 20010904//EN"
 "http://www.w3.org/TR/2001/REC-SVG-20010904/DTD/svg10.dtd">
<svg version="1.0" xmlns="http://www.w3.org/2000/svg"
 width="509.000000pt" height="509.000000pt" viewBox="0 0 509.000000 509.000000"
 preserveAspectRatio="xMidYMid meet">
<metadata>
Created by potrace 1.12, written by Peter Selinger 2001-2015
</metadata>
<g transform="translate(0.000000,509.000000) scale(0.100000,-0.100000)"
fill="#000000" stroke="none">
<path d="M0 2545 l0 -2545 2545 0 2545 0 0 2545 0 2545 -2545 0 -2545 0 0
-2545z m2733 2246 c162 -111 217 -271 146 -421 -25 -54 -56 -90 -183 -215
-134 -132 -155 -157 -174 -208 -27 -72 -27 -96 -1 -158 12 -27 19 -52 16 -56
-9 -8 -99 39 -159 83 -86 63 -136 159 -124 237 13 87 51 145 170 261 128 125
182 202 216 306 18 55 22 85 17 135 -4 60 -3 65 15 65 11 0 38 -13 61 -29z
m461 -512 c31 -25 66 -89 66 -121 0 -13 -9 -41 -19 -63 -17 -38 -34 -55 -131
-134 -52 -42 -84 -109 -75 -157 5 -29 3 -34 -12 -34 -46 0 -93 65 -93 130 0
48 24 95 86 168 59 69 114 170 114 210 0 29 28 29 64 1z m-1683 -35 c9 -11 13
-49 13 -120 0 -133 -2 -135 -120 -139 -84 -2 -196 -24 -237 -47 -37 -19 -99
-82 -117 -118 -43 -84 -50 -154 -50 -488 0 -355 -8 -460 -41 -547 -31 -84
-111 -163 -199 -196 -36 -14 -65 -31 -65 -38 0 -8 18 -19 40 -26 129 -38 200
-115 242 -262 13 -48 17 -136 23 -493 5 -277 11 -451 19 -478 44 -166 148
-231 396 -250 82 -6 90 -9 102 -32 16 -32 16 -178 0 -210 -8 -15 -25 -27 -47
-32 -51 -10 -303 17 -385 42 -178 55 -297 166 -355 332 -40 114 -50 239 -50
631 0 388 -7 433 -78 509 -36 39 -57 51 -111 67 -36 11 -79 21 -96 23 -48 5
-55 33 -51 195 2 88 8 148 15 157 6 7 39 17 74 20 120 14 184 62 220 163 18
53 21 93 28 458 7 366 9 406 29 475 27 95 62 160 123 227 79 86 200 149 332
172 99 18 106 18 221 20 91 1 114 -2 125 -15z m2597 -676 c9 -9 12 -68 12
-205 0 -192 0 -193 23 -197 238 -45 312 -80 443 -210 76 -75 99 -106 132 -176
53 -109 72 -191 72 -311 0 -261 -139 -492 -370 -613 -70 -37 -195 -76 -245
-76 -16 0 -35 -4 -41 -8 -8 -4 -13 -53 -15 -132 -4 -112 -7 -131 -32 -182 -32
-65 -85 -116 -156 -152 -60 -31 -81 -59 -81 -107 0 -21 -8 -47 -19 -60 l-19
-24 -999 -3 c-699 -2 -1006 1 -1024 9 -31 12 -49 47 -49 93 0 38 -23 63 -89
96 -63 31 -134 107 -157 165 -18 48 -19 92 -22 1064 -2 750 1 1017 9 1027 16
19 2608 21 2627 2z"/>
<path d="M1890 3214 c-63 -53 -60 -20 -60 -734 0 -638 0 -652 21 -691 37 -74
133 -95 191 -42 49 44 48 30 48 728 0 593 -2 660 -17 692 -34 72 -125 96 -183
47z"/>
<path d="M4120 2471 l1 -349 37 4 c53 7 133 46 181 89 22 21 55 67 73 103 29
59 33 76 33 152 0 76 -3 92 -33 152 -49 100 -146 174 -255 192 l-37 7 0 -350z"/>
</g>
</svg>
