999
DXF data, created by potrace 1.12, written by Peter Selinger 2001-2015
  0
SECTION
  2
HEADER
  9
$ACADVER
  1
AC1006
  9
$EXTMIN
 10
0.000000
 20
0.000000
 30
0.000000
  9
$EXTMAX
 10
509.000000
 20
509.000000
 30
0.000000
  0
ENDSEC
  0
SECTION
  2
ENTITIES
  0
POLYLINE
  8
0
 66
1
 70
1
  0
VERTEX
  8
0
 10
0.000000
 20
254.500000
 42
0.000000
  0
VERTEX
  8
0
 10
0.000000
 20
0.000000
 42
0.000000
  0
VERTEX
  8
0
 10
254.500000
 20
0.000000
 42
0.000000
  0
VERTEX
  8
0
 10
509.000000
 20
0.000000
 42
0.000000
  0
VERTEX
  8
0
 10
509.000000
 20
254.500000
 42
0.000000
  0
VERTEX
  8
0
 10
509.000000
 20
509.000000
 42
0.000000
  0
VERTEX
  8
0
 10
254.500000
 20
509.000000
 42
0.000000
  0
VERTEX
  8
0
 10
0.000000
 20
509.000000
 42
0.000000
  0
SEQEND
  0
POLYLINE
  8
0
 66
1
 70
1
  0
VERTEX
  8
0
 10
273.342717
 20
479.108214
 42
-0.066884
  0
VERTEX
  8
0
 10
283.349767
 20
470.040206
 42
-0.092146
  0
VERTEX
  8
0
 10
289.335101
 20
459.519470
 42
-0.100311
  0
VERTEX
  8
0
 10
290.848288
 20
448.253707
 42
-0.093950
  0
VERTEX
  8
0
 10
287.929327
 20
437.000000
 42
-0.037188
  0
VERTEX
  8
0
 10
285.631364
 20
432.944095
 42
-0.029039
  0
VERTEX
  8
0
 10
282.574804
 20
428.905659
 42
-0.017780
  0
VERTEX
  8
0
 10
277.846316
 20
423.742680
 42
-0.004216
  0
VERTEX
  8
0
 10
269.591543
 20
415.489419
 42
0.003588
  0
VERTEX
  8
0
 10
260.940396
 20
406.861564
 42
0.020452
  0
VERTEX
  8
0
 10
256.568691
 20
402.060959
 42
0.038114
  0
VERTEX
  8
0
 10
253.975052
 20
398.440082
 42
0.046876
  0
VERTEX
  8
0
 10
252.161427
 20
394.701907
 42
0.022505
  0
VERTEX
  8
0
 10
250.599085
 20
389.874810
 42
0.066704
  0
VERTEX
  8
0
 10
250.132178
 20
386.432268
 42
0.072285
  0
VERTEX
  8
0
 10
250.604550
 20
383.145071
 42
0.029813
  0
VERTEX
  8
0
 10
252.136235
 20
378.904950
 42
-0.014094
  0
VERTEX
  8
0
 10
252.909850
 20
376.957167
 42
-0.021209
  0
VERTEX
  8
0
 10
253.462833
 20
375.215727
 42
-0.017096
  0
VERTEX
  8
0
 10
253.796777
 20
373.795083
 42
-0.250576
  0
VERTEX
  8
0
 10
253.652494
 20
373.319161
 42
-0.317874
  0
VERTEX
  8
0
 10
252.459768
 20
373.114602
 42
-0.009488
  0
VERTEX
  8
0
 10
247.683059
 20
375.509052
 42
-0.017675
  0
VERTEX
  8
0
 10
242.538984
 20
378.447458
 42
-0.019725
  0
VERTEX
  8
0
 10
237.805435
 20
381.642824
 42
-0.053704
  0
VERTEX
  8
0
 10
232.139278
 20
386.822062
 42
-0.060397
  0
VERTEX
  8
0
 10
227.958959
 20
392.902209
 42
-0.065974
  0
VERTEX
  8
0
 10
225.632373
 20
399.277748
 42
-0.092009
  0
VERTEX
  8
0
 10
225.422512
 20
405.331840
 42
-0.053089
  0
VERTEX
  8
0
 10
227.048392
 20
411.570870
 42
-0.054233
  0
VERTEX
  8
0
 10
229.943835
 20
417.279894
 42
-0.040416
  0
VERTEX
  8
0
 10
234.737328
 20
423.475219
 42
-0.014826
  0
VERTEX
  8
0
 10
242.440422
 20
431.435954
 42
0.014820
  0
VERTEX
  8
0
 10
250.860847
 20
440.137806
 42
0.031155
  0
VERTEX
  8
0
 10
256.751613
 20
447.466724
 42
0.037899
  0
VERTEX
  8
0
 10
260.921140
 20
454.438621
 42
0.038048
  0
VERTEX
  8
0
 10
263.984267
 20
461.951070
 42
0.015591
  0
VERTEX
  8
0
 10
265.085973
 20
465.783472
 42
0.029869
  0
VERTEX
  8
0
 10
265.687070
 20
468.925502
 42
0.031817
  0
VERTEX
  8
0
 10
265.888173
 20
471.982384
 42
0.020547
  0
VERTEX
  8
0
 10
265.749764
 20
475.528645
 42
-0.006396
  0
VERTEX
  8
0
 10
265.487793
 20
479.414958
 42
-0.068296
  0
VERTEX
  8
0
 10
265.616923
 20
480.988760
 42
-0.209055
  0
VERTEX
  8
0
 10
266.150799
 20
481.720339
 42
-0.132824
  0
VERTEX
  8
0
 10
267.184977
 20
482.000000
 42
-0.088657
  0
VERTEX
  8
0
 10
268.206807
 20
481.817380
 42
-0.021340
  0
VERTEX
  8
0
 10
269.800116
 20
481.150538
 42
-0.021247
  0
VERTEX
  8
0
 10
271.590162
 20
480.215125
 42
-0.019657
  0
SEQEND
  0
POLYLINE
  8
0
 66
1
 70
1
  0
VERTEX
  8
0
 10
319.393041
 20
427.905474
 42
-0.065849
  0
VERTEX
  8
0
 10
321.690886
 20
425.548856
 42
-0.035869
  0
VERTEX
  8
0
 10
323.873765
 20
422.139934
 42
-0.035802
  0
VERTEX
  8
0
 10
325.492576
 20
418.575219
 42
-0.091326
  0
VERTEX
  8
0
 10
325.978038
 20
415.789838
 42
-0.051601
  0
VERTEX
  8
0
 10
325.847798
 20
414.639127
 42
-0.017216
  0
VERTEX
  8
0
 10
325.427592
 20
412.995120
 42
-0.016927
  0
VERTEX
  8
0
 10
324.833724
 20
411.194145
 42
-0.018513
  0
VERTEX
  8
0
 10
324.135018
 20
409.491423
 42
-0.044894
  0
VERTEX
  8
0
 10
322.588448
 20
406.765959
 42
-0.042647
  0
VERTEX
  8
0
 10
320.556338
 20
404.309373
 42
-0.024158
  0
VERTEX
  8
0
 10
317.268706
 20
401.270273
 42
-0.004585
  0
VERTEX
  8
0
 10
310.968990
 20
396.085080
 42
0.054983
  0
VERTEX
  8
0
 10
307.506331
 20
392.594989
 42
0.056263
  0
VERTEX
  8
0
 10
304.918327
 20
388.459617
 42
0.060956
  0
VERTEX
  8
0
 10
303.487208
 20
384.212603
 42
0.097483
  0
VERTEX
  8
0
 10
303.453229
 20
380.397616
 42
-0.016945
  0
VERTEX
  8
0
 10
303.735947
 20
378.546532
 42
-0.113829
  0
VERTEX
  8
0
 10
303.635483
 20
377.628567
 42
-0.224250
  0
VERTEX
  8
0
 10
303.176766
 20
377.161978
 42
-0.088406
  0
VERTEX
  8
0
 10
302.267819
 20
377.000000
 42
-0.154263
  0
VERTEX
  8
0
 10
298.951208
 20
378.048204
 42
-0.085012
  0
VERTEX
  8
0
 10
295.904154
 20
381.073666
 42
-0.075748
  0
VERTEX
  8
0
 10
293.743591
 20
385.346790
 42
-0.079397
  0
VERTEX
  8
0
 10
293.000000
 20
390.000000
 42
-0.068260
  0
VERTEX
  8
0
 10
293.499373
 20
393.640803
 42
-0.050560
  0
VERTEX
  8
0
 10
294.984175
 20
397.427876
 42
-0.039081
  0
VERTEX
  8
0
 10
297.605029
 20
401.675782
 42
-0.018155
  0
VERTEX
  8
0
 10
301.616995
 20
406.768632
 42
0.027076
  0
VERTEX
  8
0
 10
305.803691
 20
412.282794
 42
0.024556
  0
VERTEX
  8
0
 10
309.519179
 20
418.395435
 42
0.024030
  0
VERTEX
  8
0
 10
312.248783
 20
424.060448
 42
0.100489
  0
VERTEX
  8
0
 10
312.999211
 20
427.750000
 42
-0.167152
  0
VERTEX
  8
0
 10
313.536469
 20
429.310414
 42
-0.224578
  0
VERTEX
  8
0
 10
314.853591
 20
429.973078
 42
-0.125515
  0
VERTEX
  8
0
 10
316.906121
 20
429.502414
 42
-0.047882
  0
SEQEND
  0
POLYLINE
  8
0
 66
1
 70
1
  0
VERTEX
  8
0
 10
151.069863
 20
424.415820
 42
-0.122559
  0
VERTEX
  8
0
 10
151.671992
 20
423.165559
 42
-0.024002
  0
VERTEX
  8
0
 10
152.065182
 20
420.680557
 42
-0.019460
  0
VERTEX
  8
0
 10
152.310047
 20
417.188931
 42
-0.007775
  0
VERTEX
  8
0
 10
152.384615
 20
412.393842
 42
-0.015341
  0
VERTEX
  8
0
 10
152.120238
 20
403.779120
 42
-0.164689
  0
VERTEX
  8
0
 10
150.817531
 20
400.590072
 42
-0.187807
  0
VERTEX
  8
0
 10
147.920619
 20
399.062521
 42
-0.021064
  0
VERTEX
  8
0
 10
140.354933
 20
398.518069
 42
0.023091
  0
VERTEX
  8
0
 10
133.878776
 20
398.025639
 42
0.018354
  0
VERTEX
  8
0
 10
126.953759
 20
396.916827
 42
0.018315
  0
VERTEX
  8
0
 10
120.720659
 20
395.443581
 42
0.055726
  0
VERTEX
  8
0
 10
116.684900
 20
393.831364
 42
0.052725
  0
VERTEX
  8
0
 10
113.701591
 20
391.804576
 42
0.022539
  0
VERTEX
  8
0
 10
110.159612
 20
388.523538
 42
0.022506
  0
VERTEX
  8
0
 10
106.935272
 20
384.946222
 42
0.054253
  0
VERTEX
  8
0
 10
104.984570
 20
381.969754
 42
0.053954
  0
VERTEX
  8
0
 10
102.362855
 20
375.086943
 42
0.038506
  0
VERTEX
  8
0
 10
100.892277
 20
366.966855
 42
0.021278
  0
VERTEX
  8
0
 10
100.174189
 20
354.940336
 42
0.004132
  0
VERTEX
  8
0
 10
99.982234
 20
333.187947
 42
-0.003639
  0
VERTEX
  8
0
 10
99.799992
 20
309.942165
 42
-0.014755
  0
VERTEX
  8
0
 10
99.168303
 20
295.796736
 42
-0.024201
  0
VERTEX
  8
0
 10
97.969655
 20
286.063037
 42
-0.046962
  0
VERTEX
  8
0
 10
95.921012
 20
278.507372
 42
-0.059963
  0
VERTEX
  8
0
 10
92.770758
 20
272.432752
 42
-0.048690
  0
VERTEX
  8
0
 10
88.067150
 20
266.797119
 42
-0.048174
  0
VERTEX
  8
0
 10
82.301280
 20
262.118035
 42
-0.055386
  0
VERTEX
  8
0
 10
76.000000
 20
258.879134
 42
0.016847
  0
VERTEX
  8
0
 10
73.509622
 20
257.832609
 42
0.024896
  0
VERTEX
  8
0
 10
71.409375
 20
256.735744
 42
0.022369
  0
VERTEX
  8
0
 10
69.835922
 20
255.714272
 42
0.242137
  0
VERTEX
  8
0
 10
69.500000
 20
255.061282
 42
0.209491
  0
VERTEX
  8
0
 10
69.760908
 20
254.465890
 42
0.045105
  0
VERTEX
  8
0
 10
70.675000
 20
253.764293
 42
0.039859
  0
VERTEX
  8
0
 10
71.968287
 20
253.083076
 42
0.028868
  0
VERTEX
  8
0
 10
73.500000
 20
252.528447
 42
-0.058005
  0
VERTEX
  8
0
 10
82.146411
 20
248.815891
 42
-0.076570
  0
VERTEX
  8
0
 10
88.835863
 20
243.469248
 42
-0.072015
  0
VERTEX
  8
0
 10
93.887828
 20
236.082910
 42
-0.044806
  0
VERTEX
  8
0
 10
97.656183
 20
226.266801
 42
-0.046607
  0
VERTEX
  8
0
 10
98.548368
 20
221.468781
 42
-0.010752
  0
VERTEX
  8
0
 10
99.117654
 20
213.255282
 42
-0.006544
  0
VERTEX
  8
0
 10
99.566583
 20
200.289306
 42
-0.001288
  0
VERTEX
  8
0
 10
100.007879
 20
177.000000
 42
0.001808
  0
VERTEX
  8
0
 10
100.383772
 20
158.194942
 42
0.003904
  0
VERTEX
  8
0
 10
100.838321
 20
143.728467
 42
0.002866
  0
VERTEX
  8
0
 10
101.337479
 20
132.631324
 42
0.052957
  0
VERTEX
  8
0
 10
101.885026
 20
129.161161
 42
0.078155
  0
VERTEX
  8
0
 10
106.630843
 20
118.485378
 42
0.108825
  0
VERTEX
  8
0
 10
114.043475
 20
111.156713
 42
0.086774
  0
VERTEX
  8
0
 10
125.187684
 20
106.578566
 42
0.035257
  0
VERTEX
  8
0
 10
141.473559
 20
104.180635
 42
-0.006145
  0
VERTEX
  8
0
 10
146.841119
 20
103.707099
 42
-0.050294
  0
VERTEX
  8
0
 10
149.248267
 20
103.217170
 42
-0.112204
  0
VERTEX
  8
0
 10
150.652326
 20
102.404350
 42
-0.089027
  0
VERTEX
  8
0
 10
151.708817
 20
101.000000
 42
-0.099448
  0
VERTEX
  8
0
 10
152.687274
 20
97.452725
 42
-0.017532
  0
VERTEX
  8
0
 10
152.936103
 20
90.512517
 42
-0.017494
  0
VERTEX
  8
0
 10
152.698624
 20
83.572543
 42
-0.100151
  0
VERTEX
  8
0
 10
151.725131
 20
80.038924
 42
-0.068598
  0
VERTEX
  8
0
 10
150.965552
 20
78.941517
 42
-0.058818
  0
VERTEX
  8
0
 10
149.900171
 20
78.024179
 42
-0.054054
  0
VERTEX
  8
0
 10
148.560677
 20
77.317664
 42
-0.042638
  0
VERTEX
  8
0
 10
146.989873
 20
76.845254
 42
-0.070382
  0
VERTEX
  8
0
 10
141.332553
 20
76.469151
 42
-0.008588
  0
VERTEX
  8
0
 10
128.924662
 20
77.605462
 42
-0.010544
  0
VERTEX
  8
0
 10
116.444307
 20
79.231880
 42
-0.036445
  0
VERTEX
  8
0
 10
108.500000
 20
81.037880
 42
-0.051274
  0
VERTEX
  8
0
 10
96.285487
 20
86.185538
 42
-0.062625
  0
VERTEX
  8
0
 10
86.247826
 20
93.448858
 42
-0.063991
  0
VERTEX
  8
0
 10
78.483736
 20
102.827215
 42
-0.057097
  0
VERTEX
  8
0
 10
72.984382
 20
114.222502
 42
-0.039968
  0
VERTEX
  8
0
 10
70.489288
 20
123.768045
 42
-0.024269
  0
VERTEX
  8
0
 10
69.007658
 20
135.348894
 42
-0.015434
  0
VERTEX
  8
0
 10
68.230518
 20
151.576805
 42
-0.004180
  0
VERTEX
  8
0
 10
68.008553
 20
177.302595
 42
0.004416
  0
VERTEX
  8
0
 10
67.778653
 20
202.564219
 42
0.033388
  0
VERTEX
  8
0
 10
66.770153
 20
214.444859
 42
0.072237
  0
VERTEX
  8
0
 10
64.501225
 20
221.894092
 42
0.078194
  0
VERTEX
  8
0
 10
60.246442
 20
228.167620
 42
0.022190
  0
VERTEX
  8
0
 10
57.624005
 20
230.733001
 42
0.045970
  0
VERTEX
  8
0
 10
55.325169
 20
232.437994
 42
0.044955
  0
VERTEX
  8
0
 10
52.720386
 20
233.716968
 42
0.020340
  0
VERTEX
  8
0
 10
49.115222
 20
234.935361
 42
0.006917
  0
VERTEX
  8
0
 10
46.364219
 20
235.700870
 42
0.006736
  0
VERTEX
  8
0
 10
43.568778
 20
236.397103
 42
0.006665
  0
VERTEX
  8
0
 10
41.096725
 20
236.942876
 42
0.024852
  0
VERTEX
  8
0
 10
39.523171
 20
237.187567
 42
-0.152196
  0
VERTEX
  8
0
 10
36.662645
 20
238.419450
 42
-0.152334
  0
VERTEX
  8
0
 10
35.009510
 20
241.057805
 42
-0.061478
  0
VERTEX
  8
0
 10
34.316407
 20
246.176511
 42
-0.008892
  0
VERTEX
  8
0
 10
34.379682
 20
256.727695
 42
-0.005992
  0
VERTEX
  8
0
 10
34.595442
 20
262.758104
 42
-0.011934
  0
VERTEX
  8
0
 10
34.937250
 20
267.522976
 42
-0.009709
  0
VERTEX
  8
0
 10
35.358231
 20
271.170823
 42
-0.140516
  0
VERTEX
  8
0
 10
35.875870
 20
272.350432
 42
-0.129321
  0
VERTEX
  8
0
 10
36.691520
 20
272.933789
 42
-0.021901
  0
VERTEX
  8
0
 10
38.524548
 20
273.540928
 42
-0.022663
  0
VERTEX
  8
0
 10
40.795482
 20
274.074414
 42
-0.018449
  0
VERTEX
  8
0
 10
43.266826
 20
274.444190
 42
0.048721
  0
VERTEX
  8
0
 10
51.309407
 20
276.149951
 42
0.082500
  0
VERTEX
  8
0
 10
57.430074
 20
279.266633
 42
0.087783
  0
VERTEX
  8
0
 10
61.963460
 20
284.035707
 42
0.062148
  0
VERTEX
  8
0
 10
65.255168
 20
290.666004
 42
0.047797
  0
VERTEX
  8
0
 10
66.426481
 20
295.428509
 42
0.021110
  0
VERTEX
  8
0
 10
67.096278
 20
301.881732
 42
0.009390
  0
VERTEX
  8
0
 10
67.553302
 20
312.646762
 42
0.001119
  0
VERTEX
  8
0
 10
68.064107
 20
336.500000
 42
-0.001175
  0
VERTEX
  8
0
 10
68.578605
 20
360.401824
 42
-0.009400
  0
VERTEX
  8
0
 10
69.048651
 20
371.410703
 42
-0.020657
  0
VERTEX
  8
0
 10
69.757746
 20
378.285679
 42
-0.034010
  0
VERTEX
  8
0
 10
70.987442
 20
383.996749
 42
-0.022850
  0
VERTEX
  8
0
 10
73.245494
 20
390.681299
 42
-0.031799
  0
VERTEX
  8
0
 10
75.906974
 20
396.408258
 42
-0.032922
  0
VERTEX
  8
0
 10
79.192650
 20
401.597773
 42
-0.027359
  0
VERTEX
  8
0
 10
83.326819
 20
406.658648
 42
-0.047367
  0
VERTEX
  8
0
 10
89.952696
 20
412.665963
 42
-0.040493
  0
VERTEX
  8
0
 10
97.935642
 20
417.680539
 42
-0.039135
  0
VERTEX
  8
0
 10
106.913123
 20
421.494150
 42
-0.037543
  0
VERTEX
  8
0
 10
116.500000
 20
423.925938
 42
-0.004185
  0
VERTEX
  8
0
 10
123.005302
 20
425.009141
 42
-0.017320
  0
VERTEX
  8
0
 10
126.960385
 20
425.494032
 42
-0.015741
  0
VERTEX
  8
0
 10
131.109362
 20
425.726097
 42
-0.003039
  0
VERTEX
  8
0
 10
138.627555
 20
425.863818
 42
-0.005395
  0
VERTEX
  8
0
 10
144.525654
 20
425.872353
 42
-0.026634
  0
VERTEX
  8
0
 10
147.841508
 20
425.664511
 42
-0.049304
  0
VERTEX
  8
0
 10
149.882897
 20
425.220038
 42
-0.142237
  0
SEQEND
  0
POLYLINE
  8
0
 66
1
 70
1
  0
VERTEX
  8
0
 10
410.800000
 20
356.800000
 42
-0.173159
  0
VERTEX
  8
0
 10
411.386348
 20
355.562492
 42
-0.010260
  0
VERTEX
  8
0
 10
411.718881
 20
351.364255
 42
-0.011145
  0
VERTEX
  8
0
 10
411.937050
 20
345.346038
 42
-0.003487
  0
VERTEX
  8
0
 10
412.000000
 20
336.319052
 42
0.001508
  0
VERTEX
  8
0
 10
412.038572
 20
323.530778
 42
0.026919
  0
VERTEX
  8
0
 10
412.284695
 20
319.423866
 42
0.109613
  0
VERTEX
  8
0
 10
412.943455
 20
317.513321
 42
0.211413
  0
VERTEX
  8
0
 10
414.250000
 20
316.612323
 42
-0.016720
  0
VERTEX
  8
0
 10
429.920979
 20
313.100383
 42
-0.047218
  0
VERTEX
  8
0
 10
440.455125
 20
309.275820
 42
-0.055033
  0
VERTEX
  8
0
 10
449.156998
 20
303.909647
 42
-0.029869
  0
VERTEX
  8
0
 10
458.597767
 20
295.591595
 42
-0.009678
  0
VERTEX
  8
0
 10
463.550754
 20
290.478133
 42
-0.026267
  0
VERTEX
  8
0
 10
466.791155
 20
286.612053
 42
-0.030866
  0
VERTEX
  8
0
 10
469.305375
 20
282.802423
 42
-0.018467
  0
VERTEX
  8
0
 10
471.834365
 20
278.000000
 42
-0.022806
  0
VERTEX
  8
0
 10
475.186449
 20
270.119326
 42
-0.032635
  0
VERTEX
  8
0
 10
477.367334
 20
262.846084
 42
-0.032795
  0
VERTEX
  8
0
 10
478.576384
 20
255.378191
 42
-0.023354
  0
VERTEX
  8
0
 10
478.985219
 20
246.909963
 42
-0.066626
  0
VERTEX
  8
0
 10
476.502812
 20
228.143400
 42
-0.069650
  0
VERTEX
  8
0
 10
469.178485
 20
210.994371
 42
-0.069646
  0
VERTEX
  8
0
 10
457.426388
 20
196.514693
 42
-0.066604
  0
VERTEX
  8
0
 10
441.983665
 20
185.561486
 42
-0.028357
  0
VERTEX
  8
0
 10
436.129292
 20
182.896247
 42
-0.017544
  0
VERTEX
  8
0
 10
428.989490
 20
180.407266
 42
-0.016934
  0
VERTEX
  8
0
 10
422.132232
 20
178.535406
 42
-0.056948
  0
VERTEX
  8
0
 10
417.520099
 20
177.984687
 42
0.021607
  0
VERTEX
  8
0
 10
416.280012
 20
177.924771
 42
0.021689
  0
VERTEX
  8
0
 10
415.051289
 20
177.758058
 42
0.022124
  0
VERTEX
  8
0
 10
413.995804
 20
177.519296
 42
0.076253
  0
VERTEX
  8
0
 10
413.356629
 20
177.234687
 42
0.213118
  0
VERTEX
  8
0
 10
412.835015
 20
176.438040
 42
0.011727
  0
VERTEX
  8
0
 10
412.419820
 20
173.410965
 42
0.014565
  0
VERTEX
  8
0
 10
412.079215
 20
169.352514
 42
0.006520
  0
VERTEX
  8
0
 10
411.856629
 20
164.000000
 42
-0.005896
  0
VERTEX
  8
0
 10
411.561317
 20
156.678730
 42
-0.029737
  0
VERTEX
  8
0
 10
411.105805
 20
152.612634
 42
-0.044961
  0
VERTEX
  8
0
 10
410.260453
 20
149.446073
 42
-0.026443
  0
VERTEX
  8
0
 10
408.720218
 20
145.839456
 42
-0.042949
  0
VERTEX
  8
0
 10
405.940424
 20
141.226477
 42
-0.041990
  0
VERTEX
  8
0
 10
402.394431
 20
137.118499
 42
-0.040725
  0
VERTEX
  8
0
 10
398.103300
 20
133.552598
 42
-0.035747
  0
VERTEX
  8
0
 10
393.105517
 20
130.553469
 42
0.034737
  0
VERTEX
  8
0
 10
389.249644
 20
128.250156
 42
0.078413
  0
VERTEX
  8
0
 10
386.800586
 20
125.901745
 42
0.094114
  0
VERTEX
  8
0
 10
385.458526
 20
123.207844
 42
0.068738
  0
VERTEX
  8
0
 10
385.000000
 20
119.888278
 42
-0.041844
  0
VERTEX
  8
0
 10
384.864241
 20
118.268928
 42
-0.034968
  0
VERTEX
  8
0
 10
384.458712
 20
116.591375
 42
-0.036011
  0
VERTEX
  8
0
 10
383.846183
 20
115.053728
 42
-0.057448
  0
VERTEX
  8
0
 10
383.088512
 20
113.860784
 42
0.000000
  0
VERTEX
  8
0
 10
381.177024
 20
111.500000
 42
0.000000
  0
VERTEX
  8
0
 10
281.338512
 20
111.234056
 42
-0.000624
  0
VERTEX
  8
0
 10
235.138655
 20
111.168664
 42
-0.002037
  0
VERTEX
  8
0
 10
204.554724
 20
111.288132
 42
-0.000693
  0
VERTEX
  8
0
 10
181.564368
 20
111.503447
 42
-0.095628
  0
VERTEX
  8
0
 10
178.879720
 20
112.051645
 42
-0.094627
  0
VERTEX
  8
0
 10
176.837598
 20
113.391907
 42
-0.079926
  0
VERTEX
  8
0
 10
175.288343
 20
115.464944
 42
-0.070233
  0
VERTEX
  8
0
 10
174.323896
 20
118.173755
 42
-0.050496
  0
VERTEX
  8
0
 10
174.000000
 20
121.372739
 42
0.095672
  0
VERTEX
  8
0
 10
173.485727
 20
124.035835
 42
0.091538
  0
VERTEX
  8
0
 10
172.013441
 20
126.362950
 42
0.065131
  0
VERTEX
  8
0
 10
169.343560
 20
128.584773
 42
0.024651
  0
VERTEX
  8
0
 10
165.111295
 20
130.978235
 42
-0.051496
  0
VERTEX
  8
0
 10
160.421618
 20
133.972900
 42
-0.035252
  0
VERTEX
  8
0
 10
155.759651
 20
138.244001
 42
-0.035662
  0
VERTEX
  8
0
 10
151.838460
 20
143.020695
 42
-0.061966
  0
VERTEX
  8
0
 10
149.417197
 20
147.535184
 42
-0.078433
  0
VERTEX
  8
0
 10
148.224592
 20
153.076945
 42
-0.008708
  0
VERTEX
  8
0
 10
147.731133
 20
166.052945
 42
-0.004160
  0
VERTEX
  8
0
 10
147.440089
 20
189.760111
 42
-0.000316
  0
VERTEX
  8
0
 10
147.226899
 20
253.869701
 42
-0.000555
  0
VERTEX
  8
0
 10
147.149050
 20
303.017866
 42
-0.002241
  0
VERTEX
  8
0
 10
147.269254
 20
333.005303
 42
-0.000596
  0
VERTEX
  8
0
 10
147.481603
 20
354.936799
 42
-0.172133
  0
VERTEX
  8
0
 10
148.099343
 20
356.619701
 42
-0.222851
  0
VERTEX
  8
0
 10
151.098796
 20
358.030085
 42
-0.000078
  0
VERTEX
  8
0
 10
279.329030
 20
358.138194
 42
-0.000085
  0
VERTEX
  8
0
 10
407.408108
 20
358.204281
 42
-0.199002
  0
SEQEND
  0
POLYLINE
  8
0
 66
1
 70
1
  0
VERTEX
  8
0
 10
189.040808
 20
321.380884
 42
0.118440
  0
VERTEX
  8
0
 10
185.354283
 20
316.382780
 42
0.079562
  0
VERTEX
  8
0
 10
183.653463
 20
309.460692
 42
0.019717
  0
VERTEX
  8
0
 10
183.078924
 20
296.019117
 42
0.000822
  0
VERTEX
  8
0
 10
183.000000
 20
248.009822
 42
0.000468
  0
VERTEX
  8
0
 10
183.039535
 20
205.764735
 42
0.006991
  0
VERTEX
  8
0
 10
183.273459
 20
191.010941
 42
0.018655
  0
VERTEX
  8
0
 10
183.803612
 20
183.126737
 42
0.092083
  0
VERTEX
  8
0
 10
185.063294
 20
178.875934
 42
0.109169
  0
VERTEX
  8
0
 10
188.721894
 20
174.436027
 42
0.113117
  0
VERTEX
  8
0
 10
193.865991
 20
172.021676
 42
0.116669
  0
VERTEX
  8
0
 10
199.419786
 20
172.125770
 42
0.121730
  0
VERTEX
  8
0
 10
204.240171
 20
174.717352
 42
0.136968
  0
VERTEX
  8
0
 10
207.129887
 20
179.296037
 42
0.056432
  0
VERTEX
  8
0
 10
208.440104
 20
186.578710
 42
0.015540
  0
VERTEX
  8
0
 10
208.927416
 20
200.828716
 42
0.000777
  0
VERTEX
  8
0
 10
209.000000
 20
247.549211
 42
0.000595
  0
VERTEX
  8
0
 10
208.953860
 20
286.298535
 42
0.005439
  0
VERTEX
  8
0
 10
208.730239
 20
303.161553
 42
0.009137
  0
VERTEX
  8
0
 10
208.317883
 20
312.878255
 42
0.095887
  0
VERTEX
  8
0
 10
207.330035
 20
316.716931
 42
0.108252
  0
VERTEX
  8
0
 10
203.940800
 20
321.095386
 42
0.112145
  0
VERTEX
  8
0
 10
199.072011
 20
323.587252
 42
0.116076
  0
VERTEX
  8
0
 10
193.740788
 20
323.686270
 42
0.122345
  0
SEQEND
  0
POLYLINE
  8
0
 66
1
 70
1
  0
VERTEX
  8
0
 10
412.025262
 20
247.131010
 42
0.000000
  0
VERTEX
  8
0
 10
412.096467
 20
212.162775
 42
0.000000
  0
VERTEX
  8
0
 10
415.796361
 20
212.621677
 42
0.053083
  0
VERTEX
  8
0
 10
420.106765
 20
213.628507
 42
0.030250
  0
VERTEX
  8
0
 10
425.048343
 20
215.694601
 42
0.029693
  0
VERTEX
  8
0
 10
429.875041
 20
218.431752
 42
0.039891
  0
VERTEX
  8
0
 10
433.860326
 20
221.492778
 42
0.036471
  0
VERTEX
  8
0
 10
435.677921
 20
223.393011
 42
0.017641
  0
VERTEX
  8
0
 10
437.728891
 20
226.063187
 42
0.017349
  0
VERTEX
  8
0
 10
439.687196
 20
229.019747
 42
0.023218
  0
VERTEX
  8
0
 10
441.240315
 20
231.836585
 42
0.016484
  0
VERTEX
  8
0
 10
443.042199
 20
235.823204
 42
0.044977
  0
VERTEX
  8
0
 10
443.960812
 20
238.775649
 42
0.041040
  0
VERTEX
  8
0
 10
444.380636
 20
241.994018
 42
0.011920
  0
VERTEX
  8
0
 10
444.500000
 20
247.000000
 42
0.011951
  0
VERTEX
  8
0
 10
444.380084
 20
252.016354
 42
0.041296
  0
VERTEX
  8
0
 10
443.957945
 20
255.236604
 42
0.044997
  0
VERTEX
  8
0
 10
443.032204
 20
258.199613
 42
0.016179
  0
VERTEX
  8
0
 10
441.208001
 20
262.229053
 42
0.059491
  0
VERTEX
  8
0
 10
436.718763
 20
269.136575
 42
0.057437
  0
VERTEX
  8
0
 10
430.681462
 20
274.885056
 42
0.057690
  0
VERTEX
  8
0
 10
423.521975
 20
279.088549
 42
0.061089
  0
VERTEX
  8
0
 10
415.727028
 20
281.445407
 42
0.000000
  0
VERTEX
  8
0
 10
411.954056
 20
282.099245
 42
0.000000
  0
SEQEND
  0
ENDSEC
  0
EOF
